<?xml version="1.0" encoding="utf-8"?>
<!-- Generator: Adobe Illustrator 18.0.0, SVG Export Plug-In . SVG Version: 6.00 Build 0)  -->
<!DOCTYPE svg PUBLIC "-//W3C//DTD SVG 1.1//EN" "http://www.w3.org/Graphics/SVG/1.1/DTD/svg11.dtd">
<svg version="1.1" id="Calque_1" xmlns="http://www.w3.org/2000/svg" xmlns:xlink="http://www.w3.org/1999/xlink" x="0px" y="0px"
	 viewBox="0 0 40 32" enable-background="new 0 0 40 32" xml:space="preserve">
<path fill="#FFFFFF" d="M4,10.5l9.6-9.9c0,0,2.5,0.1,2.4,1.9s0,3.4,0,3.4l5.7,6.1h4.9c0,0,3.6,0.2,2,2.1s-4.1,4.5-4.1,4.5l10.6,10.9
	c0,0-0.6,2.5-1.7,1.4S23,20.3,23,20.3l-5.1,4.9c0,0-1.8-0.5-2-2.3s-0.1-6.2-0.1-6.2l-5.1-5.2l-4.6-0.3C6.1,11.3,5.4,11.8,4,10.5z"/>
</svg>
